REM MD5 a833706e9f28020cc665b9f1d5148f74
FILE "Frontschweine (Germany).bin" BINARY
  TRACK 01 MODE2/2352
    INDEX 01 00:00:00
  TRACK 02 AUDIO
    INDEX 00 37:00:42
    INDEX 01 37:02:42
  TRACK 03 AUDIO
    INDEX 00 39:49:40
    INDEX 01 39:51:40
REM LEADOUT 41:01:36
